<?xml version="1.0" standalone="no"?>
<!DOCTYPE svg PUBLIC "-//W3C//DTD SVG 20010904//EN"
 "http://www.w3.org/TR/2001/REC-SVG-20010904/DTD/svg10.dtd">
<svg version="1.0" xmlns="http://www.w3.org/2000/svg"
 width="147.000000pt" height="147.000000pt" viewBox="0 0 147.000000 147.000000"
 preserveAspectRatio="xMidYMid meet">
<metadata>
Created by potrace 1.14, written by Peter Selinger 2001-2017
</metadata>
<g transform="translate(0.000000,147.000000) scale(0.100000,-0.100000)"
fill="#000000" stroke="none">
<path d="M709 1460 c-23 -4 -25 -9 -24 -48 1 -24 -1 -45 -4 -46 -3 -2 -28 -7
-54 -10 -82 -11 -186 -56 -263 -113 -32 -24 -50 -29 -56 -15 -2 4 -15 18 -30
31 l-28 24 -30 -29 c-16 -16 -30 -33 -30 -39 0 -5 14 -24 32 -42 l31 -32 -27
-36 c-40 -52 -83 -150 -102 -230 -9 -39 -18 -76 -20 -83 -2 -8 -16 -11 -38 -9
-53 6 -60 -2 -57 -70 1 -33 1 -33 51 -33 33 0 50 -4 51 -12 6 -93 50 -209 113
-298 l32 -45 -33 -30 c-18 -16 -33 -35 -33 -41 0 -14 53 -64 68 -64 7 0 12 4
12 8 0 5 14 19 31 31 l31 23 41 -30 c77 -54 182 -96 268 -107 41 -6 42 -7 42
-60 0 -42 2 -45 26 -46 33 -2 65 2 70 7 3 2 4 24 4 49 -1 35 3 45 16 46 93 4
210 49 302 114 l47 33 33 -34 33 -34 33 32 c18 18 33 36 33 40 0 5 -14 21 -32
37 l-31 28 32 47 c58 84 111 220 111 287 0 24 3 25 44 24 24 -1 48 0 53 4 10
7 11 91 1 92 -5 1 -27 2 -50 3 l-41 1 -18 81 c-18 82 -61 183 -105 241 -13 17
-24 34 -24 38 0 3 14 19 30 34 35 31 33 45 -12 80 -30 24 -31 24 -47 5 -40
-48 -45 -48 -108 -6 -70 47 -146 79 -233 96 l-65 13 1 46 c0 26 -2 47 -5 48
-30 4 -50 4 -72 -1z m146 -211 c188 -43 360 -218 396 -402 26 -136 3 -266 -66
-382 -47 -77 -86 -118 -159 -166 -86 -57 -157 -80 -261 -86 -157 -9 -290 42
-400 152 -101 101 -155 228 -155 365 0 150 49 269 155 375 137 137 305 187
490 144z"/>
<path d="M627 1119 c-81 -48 -47 -219 66 -331 74 -72 141 -86 192 -38 33 31
31 47 -8 93 -31 37 -33 37 -61 22 -15 -8 -32 -15 -37 -15 -5 0 -29 30 -54 68
l-45 67 25 20 c32 26 32 49 -1 92 -26 34 -46 40 -77 22z m68 -50 c14 -26 13
-30 -10 -53 -14 -14 -25 -29 -25 -34 0 -13 76 -125 99 -146 21 -19 23 -19 51
-2 34 20 44 16 65 -23 13 -26 13 -30 -3 -43 -30 -26 -53 -29 -95 -9 -134 60
-222 276 -138 337 21 16 39 7 56 -27z"/>
<path d="M861 662 c-15 -68 -49 -241 -56 -281 -3 -19 -8 -38 -11 -43 -4 -5 7
-8 22 -6 30 3 35 15 58 153 3 17 14 71 25 120 10 50 17 92 15 94 -3 3 -13 6
-23 8 -15 2 -21 -7 -30 -45z"/>
<path d="M368 657 c-29 -18 -30 -19 -12 -38 17 -19 28 -20 66 -4 13 5 20 1 27
-16 11 -30 1 -50 -59 -114 -72 -77 -67 -85 52 -85 l98 0 0 30 c0 26 -4 30 -27
31 -16 1 -34 1 -41 0 -7 -1 1 17 17 40 54 74 51 133 -9 164 -36 18 -73 16
-112 -8z"/>
<path d="M670 672 c-23 -5 -107 -161 -102 -189 4 -21 10 -23 58 -23 53 0 54 0
54 -30 0 -28 3 -30 35 -30 32 0 35 2 35 30 0 20 5 30 15 30 10 0 15 10 15 30
0 20 -5 30 -15 30 -12 0 -15 15 -15 75 0 53 -4 75 -12 76 -7 0 -22 2 -33 3
-11 1 -27 0 -35 -2z m10 -117 c0 -28 -4 -35 -20 -35 -19 0 -19 1 -2 35 9 19
18 35 20 35 1 0 2 -16 2 -35z"/>
<path d="M967 672 c-11 -2 -17 -13 -17 -33 0 -29 1 -29 56 -29 l56 0 -20 -32
c-21 -36 -37 -82 -47 -140 l-6 -38 39 0 39 0 7 63 c5 42 18 81 41 122 21 38
31 66 26 74 -8 12 -130 21 -174 13z"/>
</g>
</svg>
